<?xml version="1.0" encoding="UTF-8"?>
<svg width="37px" height="40px" viewBox="0 0 37 40" version="1.1" xmlns="http://www.w3.org/2000/svg" xmlns:xlink="http://www.w3.org/1999/xlink">
    <!-- Generator: Sketch 50.2 (55047) - http://www.bohemiancoding.com/sketch -->
    <title>noun_startup_845894</title>
    <desc>Created with Sketch.</desc>
    <defs>
        <linearGradient x1="134.508024%" y1="146.248959%" x2="0%" y2="50%" id="linearGradient-1">
            <stop stop-color="#2D8B11" offset="0%"></stop>
            <stop stop-color="#03D22F" offset="100%"></stop>
        </linearGradient>
    </defs>
    <g id="Page-3" stroke="none" stroke-width="1" fill="none" fill-rule="evenodd">
        <g id="pebec-homepage" transform="translate(-287.000000, -2232.000000)" fill="url(#linearGradient-1)" fill-rule="nonzero">
            <g id="noun_startup_845894" transform="translate(287.000000, 2232.000000)">
                <path d="M25.2725453,29.1141667 C24.6172547,29.9035096 23.6398947,30.3578563 22.610853,30.3515112 L15.4093582,30.3515112 C14.8369236,30.3515112 14.3728737,29.8898629 14.3728737,29.3203908 C14.3728737,28.7509187 14.8369236,28.2892703 15.4093582,28.2892703 L22.5984151,28.2892703 C23.3563186,28.2892703 23.9707207,27.6780479 23.9707207,26.9240669 C23.9707207,26.1700858 23.3563186,25.5588634 22.5984151,25.5588634 L10.1606004,25.5588634 C9.01404745,25.5552394 7.91372212,26.0082413 7.10504395,26.8168304 L5.29326894,28.6192289 C4.88798523,29.0224151 4.23089051,29.0224151 3.8256068,28.6192289 C3.42032309,28.2160426 3.42032309,27.5623486 3.8256068,27.1591624 L5.67054932,25.3567638 C6.8662661,24.1599957 8.49347381,23.4887192 10.189622,23.4924981 L22.5984151,23.4924981 C23.9879491,23.4877561 25.2426196,24.3187879 25.7742038,25.5959838 L30.998086,20.4073858 C31.8599861,19.4815203 33.1618682,19.0987435 34.3912223,19.4097425 C35.6205764,19.7207414 36.5805096,20.6757066 36.8931264,21.8986985 C37.2057432,23.1216903 36.8209751,24.4168347 35.8902931,25.2742742 L26.4748674,34.6574701 C25.1146811,36.0189473 23.2634217,36.7823528 21.333904,36.7774537 L9.69210941,36.7774537 L6.75678513,39.6975868 C6.49461255,39.9584026 6.11248767,40.0602627 5.75435325,39.9647975 C5.39621884,39.8693323 5.11648401,39.5910452 5.02052219,39.2347643 C4.92456036,38.8784833 5.02695041,38.498336 5.289123,38.2375203 L8.52710076,35.0163 C8.72185773,34.8230393 8.98585118,34.7147241 9.26093183,34.7152129 L21.333904,34.7152129 C22.7135894,34.7166734 24.0364388,34.1685863 25.0072053,33.1932791 L34.422631,23.8348301 C34.9130495,23.2882235 34.8893189,22.4558302 34.3685474,21.9377539 C33.847776,21.4196776 33.0110524,21.3960698 32.4616022,21.8839502 L25.2725453,29.1141667 Z M24.9077027,17.8048378 C24.358399,17.6779446 23.8314691,17.4693759 23.344684,17.1861655 C22.9280554,16.9438409 22.538859,16.6576027 22.1838213,16.3323978 C21.7159624,15.9056585 21.0773637,15.7156784 20.4508191,15.8168376 C19.8435041,15.9111183 19.3124327,16.2754789 19.0080326,16.8067132 C18.3592924,17.9333798 17.9197232,19.1670247 17.710354,20.4486306 C17.6621694,20.7183154 17.723827,20.9959906 17.8817223,21.2203879 C18.0396175,21.4447852 18.2807734,21.5974619 18.5519794,21.6447303 C18.607172,21.6490844 18.6626244,21.6490844 18.717817,21.6447303 C19.225016,21.6431571 19.656568,21.2766656 19.7377178,20.7785891 C19.9035686,19.7516388 20.2532166,18.7626041 20.7700564,17.8584561 C21.2420831,18.2841453 21.7592154,18.6575408 22.3123454,18.9720661 C22.9824456,19.3528932 23.7064554,19.630987 24.4599414,19.7969625 C27.7476704,20.5311202 32.2335756,18.9225723 34.9533111,7.20904423 C35.0488548,6.79173604 34.9705599,6.35372444 34.7362585,5.99476755 C34.501957,5.63581066 34.1315973,5.38647008 33.7095296,5.30353367 C27.3247847,3.987824 22.7642527,4.23529291 20.1647494,6.03356694 C18.8373448,6.93243223 17.9581405,8.35168224 17.7476674,9.93532665 C17.5721773,11.1401921 17.7150625,12.3697525 18.1622612,13.5030033 C18.3235674,13.9345956 18.6665868,14.2743896 19.1011074,14.4330214 C19.535628,14.5916533 20.0181589,14.5532457 20.4217976,14.3278997 C22.0171373,13.4714914 23.7380272,12.8702093 25.5213016,12.5461236 C26.0937362,12.5358731 26.5494333,12.0659151 26.5391294,11.496443 C26.5288256,10.9269709 26.0564228,10.4736322 25.4839882,10.4838827 C25.3902786,10.4739526 25.2957739,10.4739526 25.2020644,10.4838827 C23.3691008,10.8229329 21.5917768,11.4113829 19.920139,12.232663 C19.7326595,11.5873171 19.6846193,10.9098005 19.7791771,10.2446628 C19.9120878,9.21709098 20.4869472,8.29756121 21.3546337,7.72460445 C22.7766905,6.7429778 25.9151657,5.87271215 32.8222988,7.2172932 C31.4997445,12.6657336 29.0785166,18.7122238 24.9077027,17.8048378 Z M9.7460066,6.00882005 C9.66737101,6.00227824 9.58832372,6.00227824 9.50968812,6.00882005 C8.93725352,5.99287484 8.46021019,6.44159703 8.44418202,7.01106911 C8.42815385,7.58054119 8.87921038,8.05511568 9.45164499,8.07106091 C11.2347956,8.39561106 12.955614,8.99686821 14.551149,9.85283702 C14.9547876,10.0781831 15.4373186,10.1165906 15.8718392,9.95795877 C16.3063598,9.79932692 16.6493792,9.45953297 16.8106854,9.02794067 C17.2578841,7.89468985 17.4007693,6.66512939 17.2252792,5.46026398 C17.0148061,3.87661956 16.1356018,2.45736955 14.8081972,1.55850427 C12.2335695,-0.235645287 7.67303749,-0.48311419 1.25097915,0.828470999 C0.835921518,0.919032293 0.474478655,1.17090157 0.247104077,1.52801529 C0.0197294996,1.88512901 -0.0547063515,2.31784932 0.0403651892,2.72985708 C2.76010067,14.4516341 7.25844366,16.060182 10.5295889,15.3466467 C11.2831484,15.1809134 12.0071939,14.9028059 12.6771849,14.5217503 C13.2357487,14.2102707 13.7490396,13.8245197 14.2028902,13.3751444 C14.7280137,14.2888441 15.0833322,15.2892053 15.2518126,16.3282733 C15.3329624,16.8263499 15.7645143,17.1928413 16.2717134,17.1944145 C16.3269059,17.1987686 16.3823584,17.1987686 16.4375509,17.1944145 C16.7092559,17.1508833 16.9524041,17.0016417 17.1133926,16.7795905 C17.2743811,16.5575394 17.3399916,16.2809108 17.2957601,16.0106882 C17.0868717,14.7276596 16.6472882,13.4925773 15.9980815,12.3646464 C15.7040093,11.8186435 15.1731546,11.4381626 14.5594409,11.333526 C13.9328963,11.2323667 13.2942977,11.4223469 12.8264387,11.8490862 C12.466322,12.1754113 12.0715058,12.4616929 11.6489923,12.7028539 C11.1623187,12.9862916 10.6353533,13.1948745 10.0859735,13.3215262 C5.91930561,14.2206632 3.49393174,8.19479537 2.17552338,2.746355 C9.08680242,1.40177396 12.2335695,2.25966616 13.6431885,3.25366626 C14.501443,3.83166986 15.0667561,4.75043649 15.1937694,5.77372459 C15.2883273,6.43886231 15.2402871,7.11637886 15.0528075,7.76172478 C13.3733067,6.93745779 11.5875438,6.34759729 9.7460066,6.00882005 Z" id="Shape"></path>
            </g>
        </g>
    </g>
</svg>